# Blender v3.1.2 OBJ File: 'fullblock.blend'
# www.blender.org
mtllib halfslab.mtl
o Cube
v 0.900000 1.000000 -1.000000
v 1.000000 1.000000 -0.900000
v 1.000000 0.900000 -1.000000
v 0.900000 0.000000 -1.000000
v 1.000000 0.100000 -1.000000
v 1.000000 0.000000 -0.900000
v 1.000000 1.000000 0.900000
v 0.900000 1.000000 1.000000
v 1.000000 0.900000 1.000000
v 1.000000 0.100000 1.000000
v 0.900000 0.000000 1.000000
v 1.000000 0.000000 0.900000
v -1.000000 0.900000 -1.000000
v -1.000000 1.000000 -0.900000
v -0.900000 1.000000 -1.000000
v -1.000000 0.100000 -1.000000
v -0.900000 0.000000 -1.000000
v -1.000000 0.000000 -0.900000
v -1.000000 0.900000 1.000000
v -0.900000 1.000000 1.000000
v -1.000000 1.000000 0.900000
v -0.900000 0.000000 1.000000
v -1.000000 0.100000 1.000000
v -1.000000 0.000000 0.900000
vt 0.125000 0.512500
vt 0.137500 0.500000
vt 0.362500 0.500000
vt 0.375000 0.512500
vt 0.375000 0.737500
vt 0.362500 0.750000
vt 0.137500 0.750000
vt 0.125000 0.737500
vt 0.375000 0.012500
vt 0.400000 0.000000
vt 0.600000 0.000000
vt 0.625000 0.012500
vt 0.625000 0.237500
vt 0.600000 0.250000
vt 0.400000 0.250000
vt 0.375000 0.237500
vt 0.375000 0.762500
vt 0.400000 0.750000
vt 0.600000 0.750000
vt 0.625000 0.762500
vt 0.625000 0.987500
vt 0.600000 1.000000
vt 0.400000 1.000000
vt 0.375000 0.987500
vt 0.625000 0.512500
vt 0.637500 0.500000
vt 0.862500 0.500000
vt 0.875000 0.512500
vt 0.875000 0.737500
vt 0.862500 0.750000
vt 0.637500 0.750000
vt 0.625000 0.737500
vt 0.400000 0.500000
vt 0.600000 0.500000
vt 0.625000 0.487500
vt 0.375000 0.262500
vt 0.625000 0.262500
vt 0.375000 0.487500
vn 0.0000 -1.0000 0.0000
vn -1.0000 0.0000 0.0000
vn -0.0000 0.0000 1.0000
vn 0.0000 1.0000 0.0000
vn 1.0000 0.0000 0.0000
vn 0.5774 0.5774 -0.5774
vn 0.5774 -0.5774 -0.5774
vn 0.5774 0.5774 0.5774
vn 0.5774 -0.5774 0.5774
vn -0.5774 0.5774 -0.5774
vn -0.5774 -0.5774 -0.5774
vn -0.5774 0.5774 0.5774
vn -0.5774 -0.5774 0.5774
vn 0.0000 0.0000 -1.0000
usemtl Material
s off
f 18/1/1 17/2/1 4/3/1 6/4/1 12/5/1 11/6/1 22/7/1 24/8/1
f 24/9/2 23/10/2 19/11/2 21/12/2 14/13/2 13/14/2 16/15/2 18/16/2
f 11/17/3 10/18/3 9/19/3 8/20/3 20/21/3 19/22/3 23/23/3 22/24/3
f 2/25/4 1/26/4 15/27/4 14/28/4 21/29/4 20/30/4 8/31/4 7/32/4
f 6/4/5 5/33/5 3/34/5 2/25/5 7/32/5 9/19/5 10/18/5 12/5/5
f 1/35/6 2/25/6 3/34/6
f 4/3/7 5/33/7 6/4/7
f 7/32/8 8/31/8 9/19/8
f 10/18/9 11/17/9 12/5/9
f 13/14/10 14/13/10 15/27/10
f 16/15/11 17/36/11 18/1/11
f 19/11/12 20/21/12 21/29/12
f 22/7/13 23/23/13 24/9/13
f 17/36/14 16/15/14 13/14/14 15/37/14 1/35/14 3/34/14 5/33/14 4/38/14
