# Blender v3.1.2 OBJ File: 'halframp.blend'
# www.blender.org
mtllib halframp.mtl
o Cube
v 1.000000 1.000000 -1.000000
v 1.000000 0.000000 -1.000000
v 1.000000 0.000000 1.000000
v -1.000000 1.000000 -1.000000
v -1.000000 0.000000 -1.000000
v -1.000000 0.000000 1.000000
vt 0.125000 0.500000
vt 0.375000 0.500000
vt 0.375000 0.750000
vt 0.125000 0.750000
vt 0.625000 0.500000
vt 0.375000 0.250000
vt 0.625000 0.250000
vt 0.375000 0.000000
vn 0.0000 -1.0000 0.0000
vn 1.0000 0.0000 0.0000
vn 0.0000 0.0000 -1.0000
vn -1.0000 0.0000 0.0000
vn 0.0000 0.8944 0.4472
usemtl Material
s off
f 5/1/1 2/2/1 3/3/1 6/4/1
f 2/2/2 1/5/2 3/3/2
f 5/6/3 4/7/3 1/5/3 2/2/3
f 4/7/4 5/6/4 6/8/4
f 3/3/5 1/5/5 4/7/5 6/8/5
