# Blender v3.1.2 OBJ File: ''
# www.blender.org
mtllib halfblock.mtl
o Cube
v 1.000000 2.000000 -1.000000
v 1.000000 0.000000 -1.000000
v 1.000000 2.000000 1.000000
v 1.000000 0.000000 1.000000
v -1.000000 2.000000 -1.000000
v -1.000000 0.000000 -1.000000
vt 0.625000 0.500000
vt 0.875000 0.500000
vt 0.625000 0.750000
vt 0.125000 0.500000
vt 0.375000 0.500000
vt 0.375000 0.750000
vt 0.375000 0.250000
vt 0.625000 0.250000
vn 0.0000 1.0000 0.0000
vn 0.0000 -1.0000 0.0000
vn 1.0000 0.0000 0.0000
vn 0.0000 0.0000 -1.0000
vn -0.7071 0.0000 0.7071
usemtl Material
s off
f 1/1/1 5/2/1 3/3/1
f 6/4/2 2/5/2 4/6/2
f 2/5/3 1/1/3 3/3/3 4/6/3
f 6/7/4 5/8/4 1/1/4 2/5/4
f 4/6/5 3/3/5 5/8/5 6/4/5
